{
    "asset" : {
        "generator" : "Khronos glTF Blender I/O v3.2.43",
        "version" : "2.0"
    },
    "scene" : 0,
    "scenes" : [
        {
            "name" : "Scene",
            "nodes" : [
                0,
                1,
                2,
                3
            ]
        }
    ],
    "nodes" : [
        {
            "mesh" : 0,
            "name" : "Cube",
            "translation" : [
                0.5310640335083008,
                0.2275841236114502,
                -2.0027010440826416
            ]
        },
        {
            "mesh" : 1,
            "name" : "Cube.001",
            "translation" : [
                0.5310640335083008,
                0.2275841236114502,
                -2.0027010440826416
            ]
        },
        {
            "mesh" : 2,
            "name" : "Cube.002",
            "translation" : [
                0.5310640335083008,
                0.2275841236114502,
                -2.0027010440826416
            ]
        },
        {
            "mesh" : 3,
            "name" : "Cube.003",
            "translation" : [
                0.5310640335083008,
                0.2275841236114502,
                -2.0027010440826416
            ]
        }
    ],
    "materials" : [
        {
            "doubleSided" : true,
            "name" : "Material.002",
            "pbrMetallicRoughness" : {
                "baseColorTexture" : {
                    "index" : 0
                },
                "metallicFactor" : 0,
                "roughnessFactor" : 0.5
            }
        },
        {
            "doubleSided" : true,
            "name" : "Material.003",
            "pbrMetallicRoughness" : {
                "baseColorTexture" : {
                    "index" : 1
                },
                "metallicFactor" : 0,
                "roughnessFactor" : 0.5
            }
        },
        {
            "doubleSided" : true,
            "name" : "Material.001",
            "pbrMetallicRoughness" : {
                "baseColorTexture" : {
                    "index" : 2
                },
                "metallicFactor" : 0,
                "roughnessFactor" : 0.5
            }
        },
        {
            "doubleSided" : true,
            "name" : "Material",
            "pbrMetallicRoughness" : {
                "baseColorTexture" : {
                    "index" : 3
                },
                "metallicFactor" : 0,
                "roughnessFactor" : 0.5
            }
        }
    ],
    "meshes" : [
        {
            "name" : "Cube.001",
            "primitives" : [
                {
                    "attributes" : {
                        "POSITION" : 0,
                        "NORMAL" : 1,
                        "TANGENT" : 2,
                        "TEXCOORD_0" : 3
                    },
                    "indices" : 4,
                    "material" : 0
                }
            ]
        },
        {
            "name" : "Cube.002",
            "primitives" : [
                {
                    "attributes" : {
                        "POSITION" : 5,
                        "NORMAL" : 6,
                        "TANGENT" : 7,
                        "TEXCOORD_0" : 8
                    },
                    "indices" : 9,
                    "material" : 1
                }
            ]
        },
        {
            "name" : "Cube.003",
            "primitives" : [
                {
                    "attributes" : {
                        "POSITION" : 10,
                        "NORMAL" : 11,
                        "TANGENT" : 12,
                        "TEXCOORD_0" : 13
                    },
                    "indices" : 14,
                    "material" : 2
                }
            ]
        },
        {
            "name" : "Cube.004",
            "primitives" : [
                {
                    "attributes" : {
                        "POSITION" : 15,
                        "NORMAL" : 16,
                        "TANGENT" : 17,
                        "TEXCOORD_0" : 18
                    },
                    "indices" : 19,
                    "material" : 3
                }
            ]
        }
    ],
    "textures" : [
        {
            "sampler" : 0,
            "source" : 0
        },
        {
            "sampler" : 0,
            "source" : 1
        },
        {
            "sampler" : 0,
            "source" : 2
        },
        {
            "sampler" : 0,
            "source" : 3
        }
    ],
    "images" : [
        {
            "bufferView" : 5,
            "mimeType" : "image/png",
            "name" : "Cube Base Color"
        },
        {
            "bufferView" : 11,
            "mimeType" : "image/png",
            "name" : "Cube"
        },
        {
            "bufferView" : 17,
            "mimeType" : "image/png",
            "name" : "Cube"
        },
        {
            "bufferView" : 23,
            "mimeType" : "image/png",
            "name" : "ks"
        }
    ],
    "accessors" : [
        {
            "bufferView" : 0,
            "componentType" : 5126,
            "count" : 24,
            "max" : [
                0.5053863525390625,
                0.2275841236114502,
                6.9873046875
            ],
            "min" : [
                -0.5053863525390625,
                -0.2275841236114502,
                -6.9873046875
            ],
            "type" : "VEC3"
        },
        {
            "bufferView" : 1,
            "componentType" : 5126,
            "count" : 24,
            "type" : "VEC3"
        },
        {
            "bufferView" : 2,
            "componentType" : 5126,
            "count" : 24,
            "type" : "VEC4"
        },
        {
            "bufferView" : 3,
            "componentType" : 5126,
            "count" : 24,
            "type" : "VEC2"
        },
        {
            "bufferView" : 4,
            "componentType" : 5123,
            "count" : 36,
            "type" : "SCALAR"
        },
        {
            "bufferView" : 6,
            "componentType" : 5126,
            "count" : 480,
            "max" : [
                -0.1562442034482956,
                6.790619373321533,
                6.927239418029785
            ],
            "min" : [
                -0.48249685764312744,
                0.2989160120487213,
                -6.9262847900390625
            ],
            "type" : "VEC3"
        },
        {
            "bufferView" : 7,
            "componentType" : 5126,
            "count" : 480,
            "type" : "VEC3"
        },
        {
            "bufferView" : 8,
            "componentType" : 5126,
            "count" : 480,
            "type" : "VEC4"
        },
        {
            "bufferView" : 9,
            "componentType" : 5126,
            "count" : 480,
            "type" : "VEC2"
        },
        {
            "bufferView" : 10,
            "componentType" : 5123,
            "count" : 720,
            "type" : "SCALAR"
        },
        {
            "bufferView" : 12,
            "componentType" : 5126,
            "count" : 192,
            "max" : [
                -0.5204237103462219,
                6.774185657501221,
                6.927239418029785
            ],
            "min" : [
                -0.5622837543487549,
                0.5253166556358337,
                -6.914432048797607
            ],
            "type" : "VEC3"
        },
        {
            "bufferView" : 13,
            "componentType" : 5126,
            "count" : 192,
            "type" : "VEC3"
        },
        {
            "bufferView" : 14,
            "componentType" : 5126,
            "count" : 192,
            "type" : "VEC4"
        },
        {
            "bufferView" : 15,
            "componentType" : 5126,
            "count" : 192,
            "type" : "VEC2"
        },
        {
            "bufferView" : 16,
            "componentType" : 5123,
            "count" : 288,
            "type" : "SCALAR"
        },
        {
            "bufferView" : 18,
            "componentType" : 5126,
            "count" : 24,
            "max" : [
                0.07812871783971786,
                6.609564304351807,
                7.007689476013184
            ],
            "min" : [
                -0.13279828429222107,
                0.5349686741828918,
                -7.296579360961914
            ],
            "type" : "VEC3"
        },
        {
            "bufferView" : 19,
            "componentType" : 5126,
            "count" : 24,
            "type" : "VEC3"
        },
        {
            "bufferView" : 20,
            "componentType" : 5126,
            "count" : 24,
            "type" : "VEC4"
        },
        {
            "bufferView" : 21,
            "componentType" : 5126,
            "count" : 24,
            "type" : "VEC2"
        },
        {
            "bufferView" : 22,
            "componentType" : 5123,
            "count" : 36,
            "type" : "SCALAR"
        }
    ],
    "bufferViews" : [
        {
            "buffer" : 0,
            "byteLength" : 288,
            "byteOffset" : 0
        },
        {
            "buffer" : 0,
            "byteLength" : 288,
            "byteOffset" : 288
        },
        {
            "buffer" : 0,
            "byteLength" : 384,
            "byteOffset" : 576
        },
        {
            "buffer" : 0,
            "byteLength" : 192,
            "byteOffset" : 960
        },
        {
            "buffer" : 0,
            "byteLength" : 72,
            "byteOffset" : 1152
        },
        {
            "buffer" : 0,
            "byteLength" : 20568,
            "byteOffset" : 1224
        },
        {
            "buffer" : 0,
            "byteLength" : 5760,
            "byteOffset" : 21792
        },
        {
            "buffer" : 0,
            "byteLength" : 5760,
            "byteOffset" : 27552
        },
        {
            "buffer" : 0,
            "byteLength" : 7680,
            "byteOffset" : 33312
        },
        {
            "buffer" : 0,
            "byteLength" : 3840,
            "byteOffset" : 40992
        },
        {
            "buffer" : 0,
            "byteLength" : 1440,
            "byteOffset" : 44832
        },
        {
            "buffer" : 0,
            "byteLength" : 20568,
            "byteOffset" : 46272
        },
        {
            "buffer" : 0,
            "byteLength" : 2304,
            "byteOffset" : 66840
        },
        {
            "buffer" : 0,
            "byteLength" : 2304,
            "byteOffset" : 69144
        },
        {
            "buffer" : 0,
            "byteLength" : 3072,
            "byteOffset" : 71448
        },
        {
            "buffer" : 0,
            "byteLength" : 1536,
            "byteOffset" : 74520
        },
        {
            "buffer" : 0,
            "byteLength" : 576,
            "byteOffset" : 76056
        },
        {
            "buffer" : 0,
            "byteLength" : 20568,
            "byteOffset" : 76632
        },
        {
            "buffer" : 0,
            "byteLength" : 288,
            "byteOffset" : 97200
        },
        {
            "buffer" : 0,
            "byteLength" : 288,
            "byteOffset" : 97488
        },
        {
            "buffer" : 0,
            "byteLength" : 384,
            "byteOffset" : 97776
        },
        {
            "buffer" : 0,
            "byteLength" : 192,
            "byteOffset" : 98160
        },
        {
            "buffer" : 0,
            "byteLength" : 72,
            "byteOffset" : 98352
        },
        {
            "buffer" : 0,
            "byteLength" : 97257,
            "byteOffset" : 98424
        }
    ],
    "samplers" : [
        {
            "magFilter" : 9729,
            "minFilter" : 9987
        }
    ],
    "buffers" : [
        {
            "byteLength" : 195684,
            "uri" : "data:application/octet-stream;base64,"
        }
    ]
}
