{
    "asset" : {
        "generator" : "Khronos glTF Blender I/O v3.2.43",
        "version" : "2.0"
    },
    "scene" : 0,
    "scenes" : [
        {
            "name" : "Scene",
            "nodes" : [
                0,
                1,
                2,
                3,
                4,
                5,
                6
            ]
        }
    ],
    "nodes" : [
        {
            "mesh" : 0,
            "name" : "Cube",
            "translation" : [
                0.3584260940551758,
                1.003003716468811,
                0.8985273838043213
            ]
        },
        {
            "mesh" : 1,
            "name" : "Cube.001",
            "translation" : [
                0.3584260940551758,
                1.003003716468811,
                0.8985273838043213
            ]
        },
        {
            "mesh" : 2,
            "name" : "Cube.002",
            "translation" : [
                0.3584260940551758,
                1.0504363775253296,
                0.8985273838043213
            ]
        },
        {
            "mesh" : 3,
            "name" : "Cube.003",
            "translation" : [
                0.3584260940551758,
                1.003003716468811,
                0.8985273838043213
            ]
        },
        {
            "mesh" : 4,
            "name" : "Cube.004",
            "translation" : [
                0.3584260940551758,
                1.003003716468811,
                0.8985273838043213
            ]
        },
        {
            "mesh" : 5,
            "name" : "Cube.005",
            "translation" : [
                0.3584260940551758,
                1.003003716468811,
                0.8985273838043213
            ]
        },
        {
            "mesh" : 6,
            "name" : "Cube.006",
            "rotation" : [
                0.5,
                -0.5,
                0.5,
                0.5
            ],
            "translation" : [
                -1.4695990085601807,
                1.3020310401916504,
                0.9317101240158081
            ]
        }
    ],
    "materials" : [
        {
            "doubleSided" : true,
            "name" : "Material.001",
            "pbrMetallicRoughness" : {
                "baseColorTexture" : {
                    "index" : 0
                },
                "metallicFactor" : 0,
                "roughnessFactor" : 0.5
            }
        },
        {
            "doubleSided" : true,
            "name" : "Material.002",
            "pbrMetallicRoughness" : {
                "baseColorTexture" : {
                    "index" : 1
                },
                "metallicFactor" : 0,
                "roughnessFactor" : 0.5
            }
        }
    ],
    "meshes" : [
        {
            "name" : "Cube.009",
            "primitives" : [
                {
                    "attributes" : {
                        "POSITION" : 0,
                        "NORMAL" : 1,
                        "TEXCOORD_0" : 2
                    },
                    "indices" : 3,
                    "material" : 0
                }
            ]
        },
        {
            "name" : "Cube.011",
            "primitives" : [
                {
                    "attributes" : {
                        "POSITION" : 4,
                        "NORMAL" : 5,
                        "TEXCOORD_0" : 6
                    },
                    "indices" : 7
                }
            ]
        },
        {
            "name" : "Cube.012",
            "primitives" : [
                {
                    "attributes" : {
                        "POSITION" : 8,
                        "NORMAL" : 9,
                        "TEXCOORD_0" : 10
                    },
                    "indices" : 11,
                    "material" : 1
                }
            ]
        },
        {
            "name" : "Cube.013",
            "primitives" : [
                {
                    "attributes" : {
                        "POSITION" : 12,
                        "NORMAL" : 13,
                        "TEXCOORD_0" : 14
                    },
                    "indices" : 15
                }
            ]
        },
        {
            "name" : "Cube.014",
            "primitives" : [
                {
                    "attributes" : {
                        "POSITION" : 16,
                        "NORMAL" : 17,
                        "TEXCOORD_0" : 18
                    },
                    "indices" : 19
                }
            ]
        },
        {
            "name" : "Cube.015",
            "primitives" : [
                {
                    "attributes" : {
                        "POSITION" : 20,
                        "NORMAL" : 21,
                        "TEXCOORD_0" : 22
                    },
                    "indices" : 23
                }
            ]
        },
        {
            "name" : "Cube.017",
            "primitives" : [
                {
                    "attributes" : {
                        "POSITION" : 24,
                        "NORMAL" : 25,
                        "TEXCOORD_0" : 26
                    },
                    "indices" : 27
                }
            ]
        }
    ],
    "textures" : [
        {
            "sampler" : 0,
            "source" : 0
        },
        {
            "sampler" : 0,
            "source" : 1
        }
    ],
    "images" : [
        {
            "bufferView" : 4,
            "mimeType" : "image/png",
            "name" : "Cube Base Color"
        },
        {
            "bufferView" : 13,
            "mimeType" : "image/png",
            "name" : "Cube"
        }
    ],
    "accessors" : [
        {
            "bufferView" : 0,
            "componentType" : 5126,
            "count" : 92,
            "max" : [
                1.7671217918395996,
                2.208016872406006,
                1.2337524890899658
            ],
            "min" : [
                -1.7671217918395996,
                -1.003003716468811,
                -1.2337524890899658
            ],
            "type" : "VEC3"
        },
        {
            "bufferView" : 1,
            "componentType" : 5126,
            "count" : 92,
            "type" : "VEC3"
        },
        {
            "bufferView" : 2,
            "componentType" : 5126,
            "count" : 92,
            "type" : "VEC2"
        },
        {
            "bufferView" : 3,
            "componentType" : 5123,
            "count" : 192,
            "type" : "SCALAR"
        },
        {
            "bufferView" : 5,
            "componentType" : 5126,
            "count" : 56,
            "max" : [
                1.8885138034820557,
                2.329408884048462,
                0.08819722384214401
            ],
            "min" : [
                -1.8885138034820557,
                1.5144822597503662,
                -0.08819722384214401
            ],
            "type" : "VEC3"
        },
        {
            "bufferView" : 6,
            "componentType" : 5126,
            "count" : 56,
            "type" : "VEC3"
        },
        {
            "bufferView" : 7,
            "componentType" : 5126,
            "count" : 56,
            "type" : "VEC2"
        },
        {
            "bufferView" : 8,
            "componentType" : 5123,
            "count" : 84,
            "type" : "SCALAR"
        },
        {
            "bufferView" : 9,
            "componentType" : 5126,
            "count" : 1008,
            "max" : [
                1.7671221494674683,
                1.9025847911834717,
                1.5405592918395996
            ],
            "min" : [
                -1.7671217918395996,
                0.5837630033493042,
                -1.5405592918395996
            ],
            "type" : "VEC3"
        },
        {
            "bufferView" : 10,
            "componentType" : 5126,
            "count" : 1008,
            "type" : "VEC3"
        },
        {
            "bufferView" : 11,
            "componentType" : 5126,
            "count" : 1008,
            "type" : "VEC2"
        },
        {
            "bufferView" : 12,
            "componentType" : 5123,
            "count" : 2736,
            "type" : "SCALAR"
        },
        {
            "bufferView" : 14,
            "componentType" : 5126,
            "count" : 4,
            "max" : [
                1.4441962242126465,
                0.44592753052711487,
                1.2337524890899658
            ],
            "min" : [
                0.7939455509185791,
                -0.8950313925743103,
                1.2337524890899658
            ],
            "type" : "VEC3"
        },
        {
            "bufferView" : 15,
            "componentType" : 5126,
            "count" : 4,
            "type" : "VEC3"
        },
        {
            "bufferView" : 16,
            "componentType" : 5126,
            "count" : 4,
            "type" : "VEC2"
        },
        {
            "bufferView" : 17,
            "componentType" : 5123,
            "count" : 6,
            "type" : "SCALAR"
        },
        {
            "bufferView" : 18,
            "componentType" : 5126,
            "count" : 24,
            "max" : [
                1.4441962242126465,
                -0.8950313329696655,
                1.4898761510849
            ],
            "min" : [
                0.7939455509185791,
                -0.9920667409896851,
                1.2337524890899658
            ],
            "type" : "VEC3"
        },
        {
            "bufferView" : 19,
            "componentType" : 5126,
            "count" : 24,
            "type" : "VEC3"
        },
        {
            "bufferView" : 20,
            "componentType" : 5126,
            "count" : 24,
            "type" : "VEC2"
        },
        {
            "bufferView" : 21,
            "componentType" : 5123,
            "count" : 36,
            "type" : "SCALAR"
        },
        {
            "bufferView" : 22,
            "componentType" : 5126,
            "count" : 24,
            "max" : [
                1.4441962242126465,
                0.44592753052711487,
                1.2849944829940796
            ],
            "min" : [
                0.7939455509185791,
                -0.8950313925743103,
                0.6385209560394287
            ],
            "type" : "VEC3"
        },
        {
            "bufferView" : 23,
            "componentType" : 5126,
            "count" : 24,
            "type" : "VEC3"
        },
        {
            "bufferView" : 24,
            "componentType" : 5126,
            "count" : 24,
            "type" : "VEC2"
        },
        {
            "bufferView" : 25,
            "componentType" : 5123,
            "count" : 36,
            "type" : "SCALAR"
        },
        {
            "bufferView" : 26,
            "componentType" : 5126,
            "count" : 24,
            "max" : [
                0.7480999231338501,
                0.03365644812583923,
                0.4869323670864105
            ],
            "min" : [
                -0.7480999231338501,
                -0.387590229511261,
                -0.48693230748176575
            ],
            "type" : "VEC3"
        },
        {
            "bufferView" : 27,
            "componentType" : 5126,
            "count" : 24,
            "type" : "VEC3"
        },
        {
            "bufferView" : 28,
            "componentType" : 5126,
            "count" : 24,
            "type" : "VEC2"
        },
        {
            "bufferView" : 29,
            "componentType" : 5123,
            "count" : 36,
            "type" : "SCALAR"
        }
    ],
    "bufferViews" : [
        {
            "buffer" : 0,
            "byteLength" : 1104,
            "byteOffset" : 0
        },
        {
            "buffer" : 0,
            "byteLength" : 1104,
            "byteOffset" : 1104
        },
        {
            "buffer" : 0,
            "byteLength" : 736,
            "byteOffset" : 2208
        },
        {
            "buffer" : 0,
            "byteLength" : 384,
            "byteOffset" : 2944
        },
        {
            "buffer" : 0,
            "byteLength" : 22096,
            "byteOffset" : 3328
        },
        {
            "buffer" : 0,
            "byteLength" : 672,
            "byteOffset" : 25424
        },
        {
            "buffer" : 0,
            "byteLength" : 672,
            "byteOffset" : 26096
        },
        {
            "buffer" : 0,
            "byteLength" : 448,
            "byteOffset" : 26768
        },
        {
            "buffer" : 0,
            "byteLength" : 168,
            "byteOffset" : 27216
        },
        {
            "buffer" : 0,
            "byteLength" : 12096,
            "byteOffset" : 27384
        },
        {
            "buffer" : 0,
            "byteLength" : 12096,
            "byteOffset" : 39480
        },
        {
            "buffer" : 0,
            "byteLength" : 8064,
            "byteOffset" : 51576
        },
        {
            "buffer" : 0,
            "byteLength" : 5472,
            "byteOffset" : 59640
        },
        {
            "buffer" : 0,
            "byteLength" : 22042,
            "byteOffset" : 65112
        },
        {
            "buffer" : 0,
            "byteLength" : 48,
            "byteOffset" : 87156
        },
        {
            "buffer" : 0,
            "byteLength" : 48,
            "byteOffset" : 87204
        },
        {
            "buffer" : 0,
            "byteLength" : 32,
            "byteOffset" : 87252
        },
        {
            "buffer" : 0,
            "byteLength" : 12,
            "byteOffset" : 87284
        },
        {
            "buffer" : 0,
            "byteLength" : 288,
            "byteOffset" : 87296
        },
        {
            "buffer" : 0,
            "byteLength" : 288,
            "byteOffset" : 87584
        },
        {
            "buffer" : 0,
            "byteLength" : 192,
            "byteOffset" : 87872
        },
        {
            "buffer" : 0,
            "byteLength" : 72,
            "byteOffset" : 88064
        },
        {
            "buffer" : 0,
            "byteLength" : 288,
            "byteOffset" : 88136
        },
        {
            "buffer" : 0,
            "byteLength" : 288,
            "byteOffset" : 88424
        },
        {
            "buffer" : 0,
            "byteLength" : 192,
            "byteOffset" : 88712
        },
        {
            "buffer" : 0,
            "byteLength" : 72,
            "byteOffset" : 88904
        },
        {
            "buffer" : 0,
            "byteLength" : 288,
            "byteOffset" : 88976
        },
        {
            "buffer" : 0,
            "byteLength" : 288,
            "byteOffset" : 89264
        },
        {
            "buffer" : 0,
            "byteLength" : 192,
            "byteOffset" : 89552
        },
        {
            "buffer" : 0,
            "byteLength" : 72,
            "byteOffset" : 89744
        }
    ],
    "samplers" : [
        {
            "magFilter" : 9729,
            "minFilter" : 9987
        }
    ],
    "buffers" : [
        {
            "byteLength" : 89816,
            "uri" : "data:application/octet-stream;base64,"
        }
    ]
}
