{
    "asset" : {
        "generator" : "Khronos glTF Blender I/O v3.2.43",
        "version" : "2.0"
    },
    "scene" : 0,
    "scenes" : [
        {
            "name" : "Scene",
            "nodes" : [
                0,
                1,
                2,
                3,
                4,
                5,
                6,
                7
            ]
        }
    ],
    "nodes" : [
        {
            "mesh" : 0,
            "name" : "Cube",
            "translation" : [
                0.16083192825317383,
                1.6081314086914062,
                0.9658811092376709
            ]
        },
        {
            "mesh" : 1,
            "name" : "Cube.001",
            "translation" : [
                0.16083192825317383,
                1.6081314086914062,
                0.9658811092376709
            ]
        },
        {
            "mesh" : 2,
            "name" : "Cube.002",
            "translation" : [
                0.16083192825317383,
                1.6081314086914062,
                0.9658811092376709
            ]
        },
        {
            "mesh" : 3,
            "name" : "Cube.003",
            "translation" : [
                0.16083192825317383,
                1.6081314086914062,
                0.9658811092376709
            ]
        },
        {
            "mesh" : 4,
            "name" : "Cube.005",
            "translation" : [
                0.16083192825317383,
                1.6081314086914062,
                0.9658811092376709
            ]
        },
        {
            "mesh" : 5,
            "name" : "Cube.004",
            "translation" : [
                0.16083192825317383,
                1.6081314086914062,
                0.9658811092376709
            ]
        },
        {
            "mesh" : 6,
            "name" : "Cube.006",
            "translation" : [
                0.16083192825317383,
                1.6081314086914062,
                0.9658811092376709
            ]
        },
        {
            "mesh" : 7,
            "name" : "Cube.007",
            "translation" : [
                0.16083192825317383,
                1.6081314086914062,
                0.9658811092376709
            ]
        }
    ],
    "materials" : [
        {
            "doubleSided" : true,
            "name" : "Material.001",
            "pbrMetallicRoughness" : {
                "baseColorTexture" : {
                    "index" : 0
                },
                "metallicFactor" : 0,
                "roughnessFactor" : 0.5
            }
        },
        {
            "doubleSided" : true,
            "name" : "Material.002",
            "pbrMetallicRoughness" : {
                "baseColorTexture" : {
                    "index" : 1
                },
                "metallicFactor" : 0,
                "roughnessFactor" : 0.5
            }
        },
        {
            "doubleSided" : true,
            "name" : "Material.003",
            "pbrMetallicRoughness" : {
                "baseColorTexture" : {
                    "index" : 2
                },
                "metallicFactor" : 0,
                "roughnessFactor" : 0.5
            }
        },
        {
            "doubleSided" : true,
            "name" : "Material.004",
            "pbrMetallicRoughness" : {
                "baseColorTexture" : {
                    "index" : 3
                },
                "metallicFactor" : 0,
                "roughnessFactor" : 0.5
            }
        }
    ],
    "meshes" : [
        {
            "name" : "Cube.001",
            "primitives" : [
                {
                    "attributes" : {
                        "POSITION" : 0,
                        "NORMAL" : 1,
                        "TEXCOORD_0" : 2
                    },
                    "indices" : 3,
                    "material" : 0
                }
            ]
        },
        {
            "name" : "Cube.002",
            "primitives" : [
                {
                    "attributes" : {
                        "POSITION" : 4,
                        "NORMAL" : 5,
                        "TEXCOORD_0" : 6
                    },
                    "indices" : 7,
                    "material" : 1
                }
            ]
        },
        {
            "name" : "Cube.003",
            "primitives" : [
                {
                    "attributes" : {
                        "POSITION" : 8,
                        "NORMAL" : 9,
                        "TEXCOORD_0" : 10
                    },
                    "indices" : 11,
                    "material" : 2
                }
            ]
        },
        {
            "name" : "Cube.004",
            "primitives" : [
                {
                    "attributes" : {
                        "POSITION" : 12,
                        "NORMAL" : 13,
                        "TEXCOORD_0" : 14
                    },
                    "indices" : 11,
                    "material" : 3
                }
            ]
        },
        {
            "name" : "Cube.006",
            "primitives" : [
                {
                    "attributes" : {
                        "POSITION" : 15,
                        "NORMAL" : 16,
                        "TEXCOORD_0" : 17
                    },
                    "indices" : 18
                }
            ]
        },
        {
            "name" : "Cube.007",
            "primitives" : [
                {
                    "attributes" : {
                        "POSITION" : 19,
                        "NORMAL" : 20,
                        "TEXCOORD_0" : 21
                    },
                    "indices" : 22,
                    "material" : 2
                }
            ]
        },
        {
            "name" : "Cube.008",
            "primitives" : [
                {
                    "attributes" : {
                        "POSITION" : 23,
                        "NORMAL" : 24,
                        "TEXCOORD_0" : 25
                    },
                    "indices" : 26,
                    "material" : 2
                }
            ]
        },
        {
            "name" : "Cube.009",
            "primitives" : [
                {
                    "attributes" : {
                        "POSITION" : 27,
                        "NORMAL" : 28,
                        "TEXCOORD_0" : 29
                    },
                    "indices" : 30,
                    "material" : 0
                }
            ]
        }
    ],
    "textures" : [
        {
            "sampler" : 0,
            "source" : 0
        },
        {
            "sampler" : 0,
            "source" : 1
        },
        {
            "sampler" : 0,
            "source" : 2
        },
        {
            "sampler" : 0,
            "source" : 3
        }
    ],
    "images" : [
        {
            "bufferView" : 4,
            "mimeType" : "image/png",
            "name" : "Cube Base Color"
        },
        {
            "bufferView" : 9,
            "mimeType" : "image/png",
            "name" : "Cube"
        },
        {
            "bufferView" : 14,
            "mimeType" : "image/png",
            "name" : "Cube"
        },
        {
            "bufferView" : 18,
            "mimeType" : "image/png",
            "name" : "Cube"
        }
    ],
    "accessors" : [
        {
            "bufferView" : 0,
            "componentType" : 5126,
            "count" : 20,
            "max" : [
                1.975874423980713,
                1.6081314086914062,
                1.975874423980713
            ],
            "min" : [
                -1.975874423980713,
                -1.6081314086914062,
                -1.975874423980713
            ],
            "type" : "VEC3"
        },
        {
            "bufferView" : 1,
            "componentType" : 5126,
            "count" : 20,
            "type" : "VEC3"
        },
        {
            "bufferView" : 2,
            "componentType" : 5126,
            "count" : 20,
            "type" : "VEC2"
        },
        {
            "bufferView" : 3,
            "componentType" : 5123,
            "count" : 30,
            "type" : "SCALAR"
        },
        {
            "bufferView" : 5,
            "componentType" : 5126,
            "count" : 92,
            "max" : [
                1.975874423980713,
                2.329169750213623,
                1.975874423980713
            ],
            "min" : [
                -1.975874423980713,
                1.6081314086914062,
                -1.975874423980713
            ],
            "type" : "VEC3"
        },
        {
            "bufferView" : 6,
            "componentType" : 5126,
            "count" : 92,
            "type" : "VEC3"
        },
        {
            "bufferView" : 7,
            "componentType" : 5126,
            "count" : 92,
            "type" : "VEC2"
        },
        {
            "bufferView" : 8,
            "componentType" : 5123,
            "count" : 138,
            "type" : "SCALAR"
        },
        {
            "bufferView" : 10,
            "componentType" : 5126,
            "count" : 24,
            "max" : [
                -1.975874423980713,
                1.1088811159133911,
                1.975874423980713
            ],
            "min" : [
                -3.5219061374664307,
                0.9080609083175659,
                -1.975874423980713
            ],
            "type" : "VEC3"
        },
        {
            "bufferView" : 11,
            "componentType" : 5126,
            "count" : 24,
            "type" : "VEC3"
        },
        {
            "bufferView" : 12,
            "componentType" : 5126,
            "count" : 24,
            "type" : "VEC2"
        },
        {
            "bufferView" : 13,
            "componentType" : 5123,
            "count" : 36,
            "type" : "SCALAR"
        },
        {
            "bufferView" : 15,
            "componentType" : 5126,
            "count" : 24,
            "max" : [
                -1.975874423980713,
                -1.5058979988098145,
                1.975874423980713
            ],
            "min" : [
                -2.5354018211364746,
                -1.6033927202224731,
                -1.975874423980713
            ],
            "type" : "VEC3"
        },
        {
            "bufferView" : 16,
            "componentType" : 5126,
            "count" : 24,
            "type" : "VEC3"
        },
        {
            "bufferView" : 17,
            "componentType" : 5126,
            "count" : 24,
            "type" : "VEC2"
        },
        {
            "bufferView" : 19,
            "componentType" : 5126,
            "count" : 26,
            "max" : [
                -1.975874423980713,
                0.5477340221405029,
                1.547957420349121
            ],
            "min" : [
                -2.0742366313934326,
                -0.5477340221405029,
                -1.5425004959106445
            ],
            "type" : "VEC3"
        },
        {
            "bufferView" : 20,
            "componentType" : 5126,
            "count" : 26,
            "type" : "VEC3"
        },
        {
            "bufferView" : 21,
            "componentType" : 5126,
            "count" : 26,
            "type" : "VEC2"
        },
        {
            "bufferView" : 22,
            "componentType" : 5123,
            "count" : 42,
            "type" : "SCALAR"
        },
        {
            "bufferView" : 23,
            "componentType" : 5126,
            "count" : 28,
            "max" : [
                -1.975874423980713,
                1.1088811159133911,
                1.975874900817871
            ],
            "min" : [
                -3.5219061374664307,
                1.1088811159133911,
                -1.975874423980713
            ],
            "type" : "VEC3"
        },
        {
            "bufferView" : 24,
            "componentType" : 5126,
            "count" : 28,
            "type" : "VEC3"
        },
        {
            "bufferView" : 25,
            "componentType" : 5126,
            "count" : 28,
            "type" : "VEC2"
        },
        {
            "bufferView" : 26,
            "componentType" : 5123,
            "count" : 42,
            "type" : "SCALAR"
        },
        {
            "bufferView" : 27,
            "componentType" : 5126,
            "count" : 280,
            "max" : [
                -1.975874423980713,
                1.1395643949508667,
                1.975874900817871
            ],
            "min" : [
                -3.5219061374664307,
                1.1088811159133911,
                -1.975874423980713
            ],
            "type" : "VEC3"
        },
        {
            "bufferView" : 28,
            "componentType" : 5126,
            "count" : 280,
            "type" : "VEC3"
        },
        {
            "bufferView" : 29,
            "componentType" : 5126,
            "count" : 280,
            "type" : "VEC2"
        },
        {
            "bufferView" : 30,
            "componentType" : 5123,
            "count" : 420,
            "type" : "SCALAR"
        },
        {
            "bufferView" : 31,
            "componentType" : 5126,
            "count" : 50,
            "max" : [
                1.9759334325790405,
                1.6081314086914062,
                -1.975874423980713
            ],
            "min" : [
                -1.975874423980713,
                -1.7646592855453491,
                -3.516221523284912
            ],
            "type" : "VEC3"
        },
        {
            "bufferView" : 32,
            "componentType" : 5126,
            "count" : 50,
            "type" : "VEC3"
        },
        {
            "bufferView" : 33,
            "componentType" : 5126,
            "count" : 50,
            "type" : "VEC2"
        },
        {
            "bufferView" : 34,
            "componentType" : 5123,
            "count" : 78,
            "type" : "SCALAR"
        }
    ],
    "bufferViews" : [
        {
            "buffer" : 0,
            "byteLength" : 240,
            "byteOffset" : 0
        },
        {
            "buffer" : 0,
            "byteLength" : 240,
            "byteOffset" : 240
        },
        {
            "buffer" : 0,
            "byteLength" : 160,
            "byteOffset" : 480
        },
        {
            "buffer" : 0,
            "byteLength" : 60,
            "byteOffset" : 640
        },
        {
            "buffer" : 0,
            "byteLength" : 22377,
            "byteOffset" : 700
        },
        {
            "buffer" : 0,
            "byteLength" : 1104,
            "byteOffset" : 23080
        },
        {
            "buffer" : 0,
            "byteLength" : 1104,
            "byteOffset" : 24184
        },
        {
            "buffer" : 0,
            "byteLength" : 736,
            "byteOffset" : 25288
        },
        {
            "buffer" : 0,
            "byteLength" : 276,
            "byteOffset" : 26024
        },
        {
            "buffer" : 0,
            "byteLength" : 22239,
            "byteOffset" : 26300
        },
        {
            "buffer" : 0,
            "byteLength" : 288,
            "byteOffset" : 48540
        },
        {
            "buffer" : 0,
            "byteLength" : 288,
            "byteOffset" : 48828
        },
        {
            "buffer" : 0,
            "byteLength" : 192,
            "byteOffset" : 49116
        },
        {
            "buffer" : 0,
            "byteLength" : 72,
            "byteOffset" : 49308
        },
        {
            "buffer" : 0,
            "byteLength" : 21555,
            "byteOffset" : 49380
        },
        {
            "buffer" : 0,
            "byteLength" : 288,
            "byteOffset" : 70936
        },
        {
            "buffer" : 0,
            "byteLength" : 288,
            "byteOffset" : 71224
        },
        {
            "buffer" : 0,
            "byteLength" : 192,
            "byteOffset" : 71512
        },
        {
            "buffer" : 0,
            "byteLength" : 21371,
            "byteOffset" : 71704
        },
        {
            "buffer" : 0,
            "byteLength" : 312,
            "byteOffset" : 93076
        },
        {
            "buffer" : 0,
            "byteLength" : 312,
            "byteOffset" : 93388
        },
        {
            "buffer" : 0,
            "byteLength" : 208,
            "byteOffset" : 93700
        },
        {
            "buffer" : 0,
            "byteLength" : 84,
            "byteOffset" : 93908
        },
        {
            "buffer" : 0,
            "byteLength" : 336,
            "byteOffset" : 93992
        },
        {
            "buffer" : 0,
            "byteLength" : 336,
            "byteOffset" : 94328
        },
        {
            "buffer" : 0,
            "byteLength" : 224,
            "byteOffset" : 94664
        },
        {
            "buffer" : 0,
            "byteLength" : 84,
            "byteOffset" : 94888
        },
        {
            "buffer" : 0,
            "byteLength" : 3360,
            "byteOffset" : 94972
        },
        {
            "buffer" : 0,
            "byteLength" : 3360,
            "byteOffset" : 98332
        },
        {
            "buffer" : 0,
            "byteLength" : 2240,
            "byteOffset" : 101692
        },
        {
            "buffer" : 0,
            "byteLength" : 840,
            "byteOffset" : 103932
        },
        {
            "buffer" : 0,
            "byteLength" : 600,
            "byteOffset" : 104772
        },
        {
            "buffer" : 0,
            "byteLength" : 600,
            "byteOffset" : 105372
        },
        {
            "buffer" : 0,
            "byteLength" : 400,
            "byteOffset" : 105972
        },
        {
            "buffer" : 0,
            "byteLength" : 156,
            "byteOffset" : 106372
        }
    ],
    "samplers" : [
        {
            "magFilter" : 9729,
            "minFilter" : 9987
        }
    ],
    "buffers" : [
        {
            "byteLength" : 106528,
            "uri" : "data:application/octet-stream;base64,"
        }
    ]
}
